<svg width="62" height="61" viewBox="0 0 62 61" fill="none" xmlns="http://www.w3.org/2000/svg">
<path fill-rule="evenodd" clip-rule="evenodd" d="M17.52 29.5586C10.8042 29.5586 5.36001 35.2893 5.36001 42.3587C5.36001 49.4278 10.8042 55.1587 17.52 55.1587V58.3587C9.12529 58.3587 2.32001 51.1952 2.32001 42.3587C2.32001 33.5222 9.12529 26.3586 17.52 26.3586C19.679 26.3586 21.7366 26.8334 23.6006 27.6907L22.3834 30.623C20.896 29.9389 19.2522 29.5586 17.52 29.5586Z" fill="#BFACFB"/>
<path fill-rule="evenodd" clip-rule="evenodd" d="M58.56 33.5587C59.3993 33.5587 60.08 34.2749 60.08 35.1587C60.08 44.7219 57.9876 50.6483 54.4736 54.1418C50.9664 57.6285 46.3705 58.3587 42.144 58.3587H17.523L17.52 56.7587L17.5202 55.1587H42.144C46.1255 55.1587 49.7376 54.4486 52.3864 51.8154C55.0284 49.1888 57.04 44.3152 57.04 35.1587C57.04 34.2749 57.7207 33.5587 58.56 33.5587ZM16 56.7587C16 55.8749 16.6807 55.1587 17.5202 55.1587L17.52 56.7587L17.523 58.3587C16.6835 58.3587 16 57.6422 16 56.7587Z" fill="#BFACFB"/>
<path fill-rule="evenodd" clip-rule="evenodd" d="M40.776 18.0386C33.3052 18.0386 27.0073 23.3423 25.1022 30.5707C24.7179 32.0291 24.512 33.5674 24.512 35.1587C24.512 36.0422 23.8315 36.7587 22.992 36.7587C22.1525 36.7587 21.472 36.0422 21.472 35.1587C21.472 33.2755 21.7158 31.4496 22.1728 29.7153C24.4335 21.1373 31.9041 14.8386 40.776 14.8386C51.4373 14.8386 60.08 23.9362 60.08 35.1587C60.08 36.0422 59.3993 36.7587 58.56 36.7587C57.7207 36.7587 57.04 36.0422 57.04 35.1587C57.04 25.7035 49.7583 18.0386 40.776 18.0386Z" fill="#BFACFB"/>
<path fill-rule="evenodd" clip-rule="evenodd" d="M23.6 11.6386C16.8842 11.6386 11.44 17.3694 11.44 24.4386C11.44 25.9375 11.6841 27.373 12.1315 28.7054L9.26531 29.7718C8.7045 28.1016 8.40001 26.3058 8.40001 24.4386C8.40001 15.6021 15.2053 8.43863 23.6 8.43863C29.182 8.43863 34.0594 11.6068 36.7006 16.3204L34.0822 17.9461C31.9649 14.1677 28.0622 11.6386 23.6 11.6386Z" fill="#BFACFB"/>
<path fill-rule="evenodd" clip-rule="evenodd" d="M14.4871 1.74949C15.2481 1.37649 16.1523 1.7235 16.5066 2.52457L19.7258 9.80188C20.0801 10.6029 19.7504 11.5547 18.9894 11.9277C18.2284 12.3007 17.3243 11.9537 16.9699 11.1526L13.7507 3.87535C13.3964 3.07428 13.7261 2.1225 14.4871 1.74949Z" fill="#BFACFB"/>
<path fill-rule="evenodd" clip-rule="evenodd" d="M35.1897 6.00846C35.888 6.4987 36.0768 7.4921 35.611 8.2273L32.4646 13.1941C31.9989 13.9293 31.0551 14.1278 30.3567 13.6376C29.6583 13.1474 29.4696 12.154 29.9354 11.4188L33.0818 6.45198C33.5475 5.71678 34.4911 5.51822 35.1897 6.00846Z" fill="#BFACFB"/>
<path fill-rule="evenodd" clip-rule="evenodd" d="M2.51863 16.8992C2.77102 16.0564 3.62467 15.5886 4.4253 15.8542L9.77676 17.6301C10.5774 17.8957 11.0218 18.7943 10.7694 19.6371C10.517 20.4799 9.6634 20.9477 8.86276 20.682L3.5113 18.9062C2.71066 18.6405 2.26623 17.7419 2.51863 16.8992Z" fill="#BFACFB"/>
</svg>
