<svg width="61" height="61" viewBox="0 0 61 61" fill="none" xmlns="http://www.w3.org/2000/svg">
<path fill-rule="evenodd" clip-rule="evenodd" d="M30.4 45.6C38.7947 45.6 45.6 38.7947 45.6 30.4C45.6 22.0053 38.7947 15.2 30.4 15.2C22.0053 15.2 15.2 22.0053 15.2 30.4C15.2 38.7947 22.0053 45.6 30.4 45.6ZM30.4 48.64C40.4737 48.64 48.64 40.4737 48.64 30.4C48.64 20.3263 40.4737 12.16 30.4 12.16C20.3263 12.16 12.16 20.3263 12.16 30.4C12.16 40.4737 20.3263 48.64 30.4 48.64Z" fill="white"/>
<path fill-rule="evenodd" clip-rule="evenodd" d="M30.4 1.51999C31.2393 1.51999 31.92 2.20052 31.92 3.03999V12.16C31.92 12.9995 31.2393 13.68 30.4 13.68C29.5605 13.68 28.88 12.9995 28.88 12.16V3.03999C28.88 2.20052 29.5605 1.51999 30.4 1.51999Z" fill="white"/>
<path fill-rule="evenodd" clip-rule="evenodd" d="M1.51999 30.4C1.51999 29.5605 2.20052 28.88 3.03999 28.88H12.16C12.9995 28.88 13.68 29.5605 13.68 30.4C13.68 31.2393 12.9995 31.92 12.16 31.92H3.03999C2.20052 31.92 1.51999 31.2393 1.51999 30.4Z" fill="white"/>
<path fill-rule="evenodd" clip-rule="evenodd" d="M9.97873 50.8212C9.38514 50.2278 9.38514 49.2653 9.97873 48.6716L16.4275 42.2229C17.0211 41.6292 17.9835 41.6292 18.5772 42.2229C19.1707 42.8166 19.1707 43.7787 18.5772 44.3725L12.1283 50.8212C11.5347 51.4149 10.5723 51.4149 9.97873 50.8212Z" fill="white"/>
<path fill-rule="evenodd" clip-rule="evenodd" d="M9.97876 9.97873C10.5724 9.38514 11.5348 9.38514 12.1284 9.97873L18.5772 16.4275C19.1708 17.0211 19.1708 17.9835 18.5772 18.5772C17.9836 19.1707 17.0212 19.1707 16.4276 18.5772L9.97876 12.1283C9.38517 11.5347 9.38517 10.5723 9.97876 9.97873Z" fill="white"/>
<path fill-rule="evenodd" clip-rule="evenodd" d="M30.4 47.12C31.2393 47.12 31.92 47.8007 31.92 48.64V57.76C31.92 58.5993 31.2393 59.28 30.4 59.28C29.5605 59.28 28.88 58.5993 28.88 57.76V48.64C28.88 47.8007 29.5605 47.12 30.4 47.12Z" fill="white"/>
<path fill-rule="evenodd" clip-rule="evenodd" d="M47.12 30.4C47.12 29.5605 47.8007 28.88 48.64 28.88H57.76C58.5993 28.88 59.28 29.5605 59.28 30.4C59.28 31.2393 58.5993 31.92 57.76 31.92H48.64C47.8007 31.92 47.12 31.2393 47.12 30.4Z" fill="white"/>
<path fill-rule="evenodd" clip-rule="evenodd" d="M42.2229 18.5772C41.6292 17.9836 41.6292 17.0211 42.2229 16.4275L48.6716 9.97873C49.2653 9.38514 50.2278 9.38514 50.8212 9.97873C51.4149 10.5723 51.4149 11.5348 50.8212 12.1283L44.3725 18.5772C43.7787 19.1707 42.8166 19.1707 42.2229 18.5772Z" fill="white"/>
<path fill-rule="evenodd" clip-rule="evenodd" d="M42.2229 42.2229C42.8166 41.6292 43.7787 41.6292 44.3725 42.2229L50.8212 48.6716C51.4149 49.2653 51.4149 50.2278 50.8212 50.8212C50.2278 51.4149 49.2653 51.4149 48.6716 50.8212L42.2229 44.3725C41.6292 43.7787 41.6292 42.8166 42.2229 42.2229Z" fill="white"/>
</svg>
