<svg id="visual" viewBox="0 0 900 600" width="900" height="600" xmlns="http://www.w3.org/2000/svg" xmlns:xlink="http://www.w3.org/1999/xlink" version="1.1"><path d="M0 446L16.7 436.2C33.3 426.3 66.7 406.7 100 393.2C133.3 379.7 166.7 372.3 200 368C233.3 363.7 266.7 362.3 300 364.2C333.3 366 366.7 371 400 366.5C433.3 362 466.7 348 500 358.8C533.3 369.7 566.7 405.3 600 402.7C633.3 400 666.7 359 700 344.3C733.3 329.7 766.7 341.3 800 340.3C833.3 339.3 866.7 325.7 883.3 318.8L900 312L900 601L883.3 601C866.7 601 833.3 601 800 601C766.7 601 733.3 601 700 601C666.7 601 633.3 601 600 601C566.7 601 533.3 601 500 601C466.7 601 433.3 601 400 601C366.7 601 333.3 601 300 601C266.7 601 233.3 601 200 601C166.7 601 133.3 601 100 601C66.7 601 33.3 601 16.7 601L0 601Z" fill="#fa7268"></path><path d="M0 401L16.7 412C33.3 423 66.7 445 100 445.2C133.3 445.3 166.7 423.7 200 414.8C233.3 406 266.7 410 300 417.2C333.3 424.3 366.7 434.7 400 441.5C433.3 448.3 466.7 451.7 500 450.7C533.3 449.7 566.7 444.3 600 432.8C633.3 421.3 666.7 403.7 700 401.3C733.3 399 766.7 412 800 425.5C833.3 439 866.7 453 883.3 460L900 467L900 601L883.3 601C866.7 601 833.3 601 800 601C766.7 601 733.3 601 700 601C666.7 601 633.3 601 600 601C566.7 601 533.3 601 500 601C466.7 601 433.3 601 400 601C366.7 601 333.3 601 300 601C266.7 601 233.3 601 200 601C166.7 601 133.3 601 100 601C66.7 601 33.3 601 16.7 601L0 601Z" fill="#f16367"></path><path d="M0 469L16.7 455.8C33.3 442.7 66.7 416.3 100 411.3C133.3 406.3 166.7 422.7 200 428.3C233.3 434 266.7 429 300 435.3C333.3 441.7 366.7 459.3 400 464.3C433.3 469.3 466.7 461.7 500 458.5C533.3 455.3 566.7 456.7 600 456.5C633.3 456.3 666.7 454.7 700 465C733.3 475.3 766.7 497.7 800 507.5C833.3 517.3 866.7 514.7 883.3 513.3L900 512L900 601L883.3 601C866.7 601 833.3 601 800 601C766.7 601 733.3 601 700 601C666.7 601 633.3 601 600 601C566.7 601 533.3 601 500 601C466.7 601 433.3 601 400 601C366.7 601 333.3 601 300 601C266.7 601 233.3 601 200 601C166.7 601 133.3 601 100 601C66.7 601 33.3 601 16.7 601L0 601Z" fill="#e85467"></path><path d="M0 468L16.7 471.7C33.3 475.3 66.7 482.7 100 486.8C133.3 491 166.7 492 200 483.3C233.3 474.7 266.7 456.3 300 450.8C333.3 445.3 366.7 452.7 400 466.8C433.3 481 466.7 502 500 508.8C533.3 515.7 566.7 508.3 600 498.3C633.3 488.3 666.7 475.7 700 464.2C733.3 452.7 766.7 442.3 800 448.7C833.3 455 866.7 478 883.3 489.5L900 501L900 601L883.3 601C866.7 601 833.3 601 800 601C766.7 601 733.3 601 700 601C666.7 601 633.3 601 600 601C566.7 601 533.3 601 500 601C466.7 601 433.3 601 400 601C366.7 601 333.3 601 300 601C266.7 601 233.3 601 200 601C166.7 601 133.3 601 100 601C66.7 601 33.3 601 16.7 601L0 601Z" fill="#de4467"></path><path d="M0 484L16.7 494C33.3 504 66.7 524 100 525.8C133.3 527.7 166.7 511.3 200 504.8C233.3 498.3 266.7 501.7 300 500.7C333.3 499.7 366.7 494.3 400 491.7C433.3 489 466.7 489 500 499C533.3 509 566.7 529 600 536.8C633.3 544.7 666.7 540.3 700 535C733.3 529.7 766.7 523.3 800 521.8C833.3 520.3 866.7 523.7 883.3 525.3L900 527L900 601L883.3 601C866.7 601 833.3 601 800 601C766.7 601 733.3 601 700 601C666.7 601 633.3 601 600 601C566.7 601 533.3 601 500 601C466.7 601 433.3 601 400 601C366.7 601 333.3 601 300 601C266.7 601 233.3 601 200 601C166.7 601 133.3 601 100 601C66.7 601 33.3 601 16.7 601L0 601Z" fill="#d23467"></path><path d="M0 574L16.7 572.7C33.3 571.3 66.7 568.7 100 560.5C133.3 552.3 166.7 538.7 200 540.8C233.3 543 266.7 561 300 572.7C333.3 584.3 366.7 589.7 400 590.8C433.3 592 466.7 589 500 586.5C533.3 584 566.7 582 600 571.7C633.3 561.3 666.7 542.7 700 534.5C733.3 526.3 766.7 528.7 800 536C833.3 543.3 866.7 555.7 883.3 561.8L900 568L900 601L883.3 601C866.7 601 833.3 601 800 601C766.7 601 733.3 601 700 601C666.7 601 633.3 601 600 601C566.7 601 533.3 601 500 601C466.7 601 433.3 601 400 601C366.7 601 333.3 601 300 601C266.7 601 233.3 601 200 601C166.7 601 133.3 601 100 601C66.7 601 33.3 601 16.7 601L0 601Z" fill="#c62368"></path></svg>