<svg width="244" height="260" viewBox="0 0 244 260" fill="none" xmlns="http://www.w3.org/2000/svg">
<path fill-rule="evenodd" clip-rule="evenodd" d="M136.353 21.6667C74.9449 21.6667 21.5294 70.6684 21.5294 130C21.5294 189.679 70.74 238.333 131.786 238.333C170.201 238.333 203.978 219.043 223.712 189.838C225.941 186.538 230.405 185.683 233.683 187.927C236.96 190.168 237.81 194.661 235.582 197.96C213.239 231.027 175.064 252.778 131.786 252.778C63.1189 252.778 7.17647 197.961 7.17647 130C7.17647 61.6925 68.0479 7.22223 136.353 7.22223C140.316 7.22223 143.529 10.4557 143.529 14.4445C143.529 18.4331 140.316 21.6667 136.353 21.6667Z" fill="#736797"/>
<path fill-rule="evenodd" clip-rule="evenodd" d="M143.565 9.83509C146.094 12.9058 145.671 17.4588 142.62 20.0045C121.498 37.6265 107.647 65.8639 107.647 97.9012C107.647 152.213 147.143 195 194.418 195C205.834 195 216.732 192.534 226.72 188.045C230.339 186.419 234.583 188.052 236.199 191.694C237.815 195.335 236.192 199.606 232.574 201.233C220.804 206.524 207.917 209.444 194.418 209.444C137.92 209.444 93.2941 158.82 93.2941 97.9012C93.2941 61.6876 108.955 29.3283 133.46 8.88433C136.511 6.33867 141.035 6.76433 143.565 9.83509Z" fill="#736797"/>
</svg>
