<svg width="61" height="61" viewBox="0 0 61 61" fill="none" xmlns="http://www.w3.org/2000/svg">
<path fill-rule="evenodd" clip-rule="evenodd" d="M38.0909 26.0751L30.6 21.7502L23.1091 26.0751V34.7247L30.6 39.0497L38.0909 34.7247V26.0751ZM32.12 19.1175C31.1794 18.5745 30.0206 18.5745 29.08 19.1175L21.5891 23.4424C20.6486 23.9854 20.0691 24.989 20.0691 26.0751V34.7247C20.0691 35.8109 20.6486 36.8144 21.5891 37.3576L29.08 41.6823C30.0206 42.2256 31.1794 42.2256 32.12 41.6823L39.6109 37.3576C40.5514 36.8144 41.1309 35.8109 41.1309 34.7247V26.0751C41.1309 24.989 40.5514 23.9854 39.6109 23.4424L32.12 19.1175Z" fill="white"/>
<path fill-rule="evenodd" clip-rule="evenodd" d="M30.6 1.51999C31.4393 1.51999 32.12 2.20052 32.12 3.03999V57.76C32.12 58.5993 31.4393 59.28 30.6 59.28C29.7605 59.28 29.08 58.5993 29.08 57.76V3.03999C29.08 2.20052 29.7605 1.51999 30.6 1.51999Z" fill="white"/>
<path fill-rule="evenodd" clip-rule="evenodd" d="M55.6137 15.9648C56.0332 16.6919 55.784 17.6214 55.0568 18.041L7.66268 45.3921C6.9356 45.8116 6.00603 45.5623 5.58645 44.8351C5.16684 44.1083 5.41612 43.1787 6.14319 42.7591L53.5374 15.408C54.2643 14.9884 55.1939 15.2377 55.6137 15.9648Z" fill="white"/>
<path fill-rule="evenodd" clip-rule="evenodd" d="M5.58639 15.9648C5.16681 16.6919 5.41606 17.6214 6.14313 18.041L53.5374 45.3921C54.2643 45.8116 55.1939 45.5623 55.6134 44.8351C56.0332 44.1083 55.784 43.1787 55.0568 42.7591L7.66265 15.408C6.93557 14.9884 6.006 15.2377 5.58639 15.9648Z" fill="white"/>
<path fill-rule="evenodd" clip-rule="evenodd" d="M20.4052 5.00521C20.9988 4.41159 21.9612 4.41159 22.5548 5.00521L30.6 13.0504L38.6451 5.00521C39.2388 4.41159 40.2012 4.41159 40.7949 5.00521C41.3884 5.5988 41.3884 6.56121 40.7949 7.1548L30.6 17.3496L20.4052 7.1548C19.8116 6.56121 19.8116 5.5988 20.4052 5.00521Z" fill="white"/>
<path fill-rule="evenodd" clip-rule="evenodd" d="M47.4994 8.8769C48.3101 9.09432 48.791 9.92789 48.5737 10.7387L45.6267 21.7281L56.6163 24.6749C57.4271 24.8924 57.908 25.7259 57.6906 26.5367C57.4733 27.3476 56.6397 27.8286 55.829 27.6112L41.9033 23.877L45.6374 9.95133C45.8547 9.1405 46.6883 8.65945 47.4994 8.8769Z" fill="white"/>
<path fill-rule="evenodd" clip-rule="evenodd" d="M13.7007 8.8769C12.8899 9.09432 12.4089 9.92789 12.6263 10.7387L15.5731 21.7281L4.58374 24.6749C3.77292 24.8924 3.29187 25.7259 3.50932 26.5367C3.72674 27.3476 4.56031 27.8286 5.37113 27.6112L19.2968 23.877L15.5626 9.95133C15.3451 9.1405 14.5116 8.65945 13.7007 8.8769Z" fill="white"/>
<path fill-rule="evenodd" clip-rule="evenodd" d="M20.4052 55.7949C20.9988 56.3883 21.9612 56.3883 22.5548 55.7949L30.6 47.7496L38.6451 55.7949C39.2388 56.3883 40.2012 56.3883 40.7949 55.7949C41.3884 55.2012 41.3884 54.2388 40.7949 53.645L30.6 43.4504L20.4052 53.645C19.8116 54.2388 19.8116 55.2012 20.4052 55.7949Z" fill="white"/>
<path fill-rule="evenodd" clip-rule="evenodd" d="M3.5093 34.2632C3.29188 35.074 3.77293 35.9076 4.58376 36.1252L15.5731 39.0719L12.6263 50.0612C12.4089 50.8723 12.8899 51.7058 13.7007 51.9232C14.5116 52.1405 15.3451 51.6596 15.5625 50.8485L19.2968 36.9229L5.37112 33.1889C4.56029 32.9715 3.72673 33.4525 3.5093 34.2632Z" fill="white"/>
<path fill-rule="evenodd" clip-rule="evenodd" d="M57.6906 34.2632C57.908 35.074 57.4271 35.9076 56.6163 36.1252L45.6267 39.0719L48.5737 50.0612C48.791 50.8723 48.3101 51.7058 47.4994 51.9232C46.6883 52.1405 45.8547 51.6596 45.6374 50.8485L41.9033 36.9229L55.829 33.1889C56.6397 32.9715 57.4733 33.4525 57.6906 34.2632Z" fill="white"/>
</svg>
