<svg width="62" height="61" viewBox="0 0 62 61" fill="none" xmlns="http://www.w3.org/2000/svg">
<path fill-rule="evenodd" clip-rule="evenodd" d="M17.12 15.504C10.4042 15.504 4.96 20.9482 4.96 27.664C4.96 34.3797 10.4042 39.824 17.12 39.824V42.864C8.72529 42.864 1.92 36.0586 1.92 27.664C1.92 19.2693 8.72529 12.464 17.12 12.464C19.2789 12.464 21.3366 12.915 23.2006 13.7295L21.9834 16.5152C20.496 15.8653 18.8522 15.504 17.12 15.504Z" fill="#BFACFB"/>
<path fill-rule="evenodd" clip-rule="evenodd" d="M58.16 19.304C58.9993 19.304 59.68 19.9845 59.68 20.824C59.68 29.9092 57.5876 35.5394 54.0736 38.8582C50.5664 42.1706 45.9705 42.864 41.744 42.864H17.123L17.12 41.344L17.1202 39.824H41.744C45.7255 39.824 49.3376 39.1497 51.9864 36.6478C54.6284 34.1526 56.64 29.5228 56.64 20.824C56.64 19.9845 57.3203 19.304 58.16 19.304ZM15.6 41.344C15.6 40.5046 16.2807 39.824 17.1202 39.824L17.12 41.344L17.123 42.864C16.2835 42.864 15.6 42.1833 15.6 41.344Z" fill="#BFACFB"/>
<path fill-rule="evenodd" clip-rule="evenodd" d="M40.376 4.55999C32.9052 4.55999 26.6073 9.59845 24.7022 16.4655C24.3179 17.8509 24.112 19.3122 24.112 20.824C24.112 21.6635 23.4315 22.344 22.592 22.344C21.7525 22.344 21.072 21.6635 21.072 20.824C21.072 19.0349 21.3158 17.3004 21.7728 15.6529C24.0335 7.50377 31.5041 1.51999 40.376 1.51999C51.0373 1.51999 59.68 10.1627 59.68 20.824C59.68 21.6635 58.9993 22.344 58.16 22.344C57.3207 22.344 56.64 21.6635 56.64 20.824C56.64 11.8416 49.3583 4.55999 40.376 4.55999Z" fill="#BFACFB"/>
<path fill-rule="evenodd" clip-rule="evenodd" d="M37.723 47.3754C38.4216 47.8411 38.6104 48.7847 38.1446 49.4833L32.0646 58.6033C31.5989 59.3016 30.6553 59.4904 29.9569 59.0246C29.2584 58.5592 29.0696 57.6153 29.5353 56.917L35.6154 47.797C36.0811 47.0984 37.0247 46.9096 37.723 47.3754Z" fill="#BFACFB"/>
<path fill-rule="evenodd" clip-rule="evenodd" d="M31.4797 41.2005C32.2306 41.576 32.5349 42.4889 32.1595 43.2398L29.1195 49.3198C28.7441 50.0706 27.8311 50.3749 27.0802 49.9995C26.3294 49.6241 26.025 48.7111 26.4005 47.9603L29.4405 41.8803C29.8159 41.1294 30.7289 40.8251 31.4797 41.2005Z" fill="#BFACFB"/>
<path fill-rule="evenodd" clip-rule="evenodd" d="M38.4 48.64C38.4 49.4793 37.7193 50.16 36.88 50.16H27.76C26.9205 50.16 26.24 49.4793 26.24 48.64C26.24 47.8007 26.9205 47.12 27.76 47.12H36.88C37.7193 47.12 38.4 47.8007 38.4 48.64Z" fill="#BFACFB"/>
</svg>
